<svg width="40" height="41" viewBox="0 0 40 41" fill="none" xmlns="http://www.w3.org/2000/svg">
<circle cx="20" cy="20.123" r="20" fill="#2A2A2A"/>
<g clip-path="url(#clip0_1_115)">
<path d="M20.0007 9.70508C22.8309 9.70508 23.184 9.71549 24.2944 9.76758C25.4038 9.81966 26.159 9.99362 26.8236 10.252C27.5111 10.5165 28.0902 10.8749 28.6694 11.453C29.1991 11.9737 29.6089 12.6036 29.8704 13.2988C30.1277 13.9624 30.3027 14.7186 30.3548 15.828C30.4038 16.9384 30.4173 17.2915 30.4173 20.1217C30.4173 22.952 30.4069 23.3051 30.3548 24.4155C30.3027 25.5249 30.1277 26.2801 29.8704 26.9447C29.6097 27.6403 29.1997 28.2703 28.6694 28.7905C28.1485 29.32 27.5187 29.7298 26.8236 29.9915C26.16 30.2488 25.4038 30.4238 24.2944 30.4759C23.184 30.5249 22.8309 30.5384 20.0007 30.5384C17.1704 30.5384 16.8173 30.528 15.7069 30.4759C14.5975 30.4238 13.8423 30.2488 13.1777 29.9915C12.4822 29.7306 11.8522 29.3206 11.3319 28.7905C10.8021 28.2699 10.3922 27.6399 10.1309 26.9447C9.87253 26.2811 9.69857 25.5249 9.64648 24.4155C9.59753 23.3051 9.58398 22.952 9.58398 20.1217C9.58398 17.2915 9.5944 16.9384 9.64648 15.828C9.69857 14.7176 9.87253 13.9634 10.1309 13.2988C10.3915 12.6032 10.8015 11.9731 11.3319 11.453C11.8524 10.923 12.4823 10.5131 13.1777 10.252C13.8423 9.99362 14.5965 9.81966 15.7069 9.76758C16.8173 9.71862 17.1704 9.70508 20.0007 9.70508ZM20.0007 14.9134C18.6193 14.9134 17.2946 15.4621 16.3178 16.4389C15.3411 17.4156 14.7923 18.7404 14.7923 20.1217C14.7923 21.5031 15.3411 22.8278 16.3178 23.8046C17.2946 24.7813 18.6193 25.3301 20.0007 25.3301C21.382 25.3301 22.7067 24.7813 23.6835 23.8046C24.6603 22.8278 25.209 21.5031 25.209 20.1217C25.209 18.7404 24.6603 17.4156 23.6835 16.4389C22.7067 15.4621 21.382 14.9134 20.0007 14.9134ZM26.7715 14.653C26.7715 14.3077 26.6343 13.9765 26.3901 13.7323C26.1459 13.4881 25.8147 13.3509 25.4694 13.3509C25.1241 13.3509 24.7929 13.4881 24.5487 13.7323C24.3045 13.9765 24.1673 14.3077 24.1673 14.653C24.1673 14.9983 24.3045 15.3295 24.5487 15.5737C24.7929 15.8179 25.1241 15.9551 25.4694 15.9551C25.8147 15.9551 26.1459 15.8179 26.3901 15.5737C26.6343 15.3295 26.7715 14.9983 26.7715 14.653ZM20.0007 16.9967C20.8295 16.9967 21.6243 17.326 22.2104 17.912C22.7964 18.4981 23.1257 19.2929 23.1257 20.1217C23.1257 20.9505 22.7964 21.7454 22.2104 22.3315C21.6243 22.9175 20.8295 23.2467 20.0007 23.2467C19.1719 23.2467 18.377 22.9175 17.7909 22.3315C17.2049 21.7454 16.8757 20.9505 16.8757 20.1217C16.8757 19.2929 17.2049 18.4981 17.7909 17.912C18.377 17.326 19.1719 16.9967 20.0007 16.9967Z" fill="#FFF2D6"/>
</g>
<defs>
<clipPath id="clip0_1_115">
<rect width="25" height="25" fill="white" transform="translate(7.5 7.62305)"/>
</clipPath>
</defs>
</svg>
