<svg width="40" height="41" viewBox="0 0 40 41" fill="none" xmlns="http://www.w3.org/2000/svg">
<circle cx="20" cy="20.123" r="20" fill="#2A2A2A"/>
<g clip-path="url(#clip0_1_133)">
<path d="M30.5858 13.5143C29.7906 13.866 28.9472 14.0971 28.0837 14.1997C28.9939 13.6553 29.6751 12.7987 30.0004 11.7893C29.1462 12.2976 28.2098 12.6539 27.2337 12.8466C26.5781 12.1451 25.7091 11.6799 24.7618 11.5232C23.8145 11.3666 22.842 11.5273 21.9955 11.9804C21.1489 12.4335 20.4758 13.1535 20.0807 14.0286C19.6856 14.9038 19.5908 15.8849 19.8108 16.8195C18.0786 16.7327 16.3841 16.2825 14.8371 15.4983C13.2902 14.7141 11.9255 13.6133 10.8316 12.2674C10.4444 12.9324 10.241 13.6885 10.2421 14.458C10.2421 15.9684 11.0108 17.3028 12.1796 18.0841C11.4879 18.0623 10.8115 17.8755 10.2066 17.5393V17.5934C10.2068 18.5994 10.5549 19.5743 11.1919 20.3529C11.8289 21.1315 12.7155 21.6658 13.7014 21.8653C13.0594 22.0393 12.3861 22.065 11.7327 21.9403C12.0107 22.8062 12.5525 23.5634 13.2823 24.1061C14.012 24.6487 14.8932 24.9495 15.8025 24.9664C14.8988 25.6761 13.8641 26.2007 12.7576 26.5103C11.651 26.8199 10.4943 26.9083 9.35352 26.7705C11.3449 28.0512 13.663 28.7311 16.0306 28.7289C24.0441 28.7289 28.4264 22.0903 28.4264 16.333C28.4264 16.1455 28.4212 15.9559 28.4129 15.7705C29.2659 15.154 30.0021 14.3903 30.5869 13.5153L30.5858 13.5143Z" fill="#FFF2D6"/>
</g>
<defs>
<clipPath id="clip0_1_133">
<rect width="25" height="25" fill="white" transform="translate(7.5 7.62305)"/>
</clipPath>
</defs>
</svg>
