<svg width="40" height="41" viewBox="0 0 40 41" fill="none" xmlns="http://www.w3.org/2000/svg">
<circle cx="20" cy="20.123" r="20" fill="#2A2A2A"/>
<g clip-path="url(#clip0_1_127)">
<path d="M29.9413 14.3931C30.4173 16.2494 30.4173 20.1244 30.4173 20.1244C30.4173 20.1244 30.4173 23.9994 29.9413 25.8556C29.6767 26.8816 28.9027 27.6889 27.9225 27.9619C26.1423 28.4577 20.0007 28.4577 20.0007 28.4577C20.0007 28.4577 13.8621 28.4577 12.0788 27.9619C11.0944 27.6848 10.3215 26.8785 10.06 25.8556C9.58398 23.9994 9.58398 20.1244 9.58398 20.1244C9.58398 20.1244 9.58398 16.2494 10.06 14.3931C10.3246 13.3671 11.0986 12.5598 12.0788 12.2868C13.8621 11.791 20.0007 11.791 20.0007 11.791C20.0007 11.791 26.1423 11.791 27.9225 12.2868C28.9069 12.5639 29.6798 13.3702 29.9413 14.3931ZM17.9173 23.7702L24.1673 20.1244L17.9173 16.4785V23.7702Z" fill="#FFF2D6"/>
</g>
<defs>
<clipPath id="clip0_1_127">
<rect width="25" height="25" fill="white" transform="translate(7.5 7.62305)"/>
</clipPath>
</defs>
</svg>
