<svg width="40" height="41" viewBox="0 0 40 41" fill="none" xmlns="http://www.w3.org/2000/svg">
<circle cx="20" cy="20.123" r="20" fill="#2A2A2A"/>
<g clip-path="url(#clip0_1_109)">
<path d="M14.7292 12.8305C14.7289 13.383 14.5091 13.9128 14.1182 14.3033C13.7273 14.6938 13.1973 14.913 12.6448 14.9128C12.0923 14.9125 11.5625 14.6927 11.172 14.3018C10.7815 13.9109 10.5622 13.3809 10.5625 12.8284C10.5628 12.2759 10.7825 11.7461 11.1734 11.3556C11.5643 10.965 12.0943 10.7458 12.6469 10.7461C13.1994 10.7464 13.7292 10.9661 14.1197 11.357C14.5102 11.7479 14.7294 12.2779 14.7292 12.8305ZM14.7917 16.4555H10.625V29.4971H14.7917V16.4555ZM21.375 16.4555H17.2292V29.4971H21.3333V22.6534C21.3333 18.8409 26.3021 18.4867 26.3021 22.6534V29.4971H30.4167V21.2367C30.4167 14.8096 23.0625 15.0492 21.3333 18.2055L21.375 16.4555Z" fill="#FFF2D6"/>
</g>
<defs>
<clipPath id="clip0_1_109">
<rect width="25" height="25" fill="white" transform="translate(7.5 7.62305)"/>
</clipPath>
</defs>
</svg>
